<?xml version="1.0" encoding="UTF-8" standalone="no"?>
<svg
   xmlns:osb="http://www.openswatchbook.org/uri/2009/osb"
   xmlns:dc="http://purl.org/dc/elements/1.1/"
   xmlns:cc="http://creativecommons.org/ns#"
   xmlns:rdf="http://www.w3.org/1999/02/22-rdf-syntax-ns#"
   xmlns:svg="http://www.w3.org/2000/svg"
   xmlns="http://www.w3.org/2000/svg"
   width="210mm"
   height="297mm"
   viewBox="0 0 210 297"
   version="1.1"
   id="svg8">
  <defs
     id="defs2">
    <linearGradient
       id="linearGradient843"
       osb:paint="solid">
      <stop
         style="stop-color:#7f0080;stop-opacity:1;"
         offset="0"
         id="stop841" />
    </linearGradient>
    <filter
       style="color-interpolation-filters:sRGB;"
       id="filter873">
      <feComposite
         in2="SourceGraphic"
         operator="arithmetic"
         k1="0"
         k2="1"
         result="composite1"
         id="feComposite859" />
      <feColorMatrix
         in="composite1"
         values="1"
         type="saturate"
         result="colormatrix1"
         id="feColorMatrix861" />
      <feFlood
         flood-opacity="1"
         flood-color="rgb(46,119,184)"
         result="flood1"
         id="feFlood863" />
      <feBlend
         in="flood1"
         in2="colormatrix1"
         mode="multiply"
         result="blend1"
         id="feBlend865" />
      <feBlend
         in2="blend1"
         mode="screen"
         result="blend2"
         id="feBlend867" />
      <feColorMatrix
         in="blend2"
         values="1"
         type="saturate"
         result="colormatrix2"
         id="feColorMatrix869" />
      <feComposite
         in="colormatrix2"
         in2="SourceGraphic"
         operator="in"
         k2="1"
         result="fbSourceGraphic"
         id="feComposite871" />
      <feColorMatrix
         result="fbSourceGraphicAlpha"
         in="fbSourceGraphic"
         values="0 0 0 -1 0 0 0 0 -1 0 0 0 0 -1 0 0 0 0 1 0"
         id="feColorMatrix875" />
      <feComposite
         in2="fbSourceGraphic"
         id="feComposite877"
         operator="arithmetic"
         k1="0"
         k2="1"
         result="composite1"
         in="fbSourceGraphic" />
      <feColorMatrix
         id="feColorMatrix879"
         in="composite1"
         values="1"
         type="saturate"
         result="colormatrix1" />
      <feFlood
         id="feFlood881"
         flood-opacity="1"
         flood-color="rgb(46,119,184)"
         result="flood1" />
      <feBlend
         in2="colormatrix1"
         id="feBlend883"
         in="flood1"
         mode="multiply"
         result="blend1" />
      <feBlend
         in2="blend1"
         id="feBlend885"
         mode="screen"
         result="blend2" />
      <feColorMatrix
         id="feColorMatrix887"
         in="blend2"
         values="1"
         type="saturate"
         result="colormatrix2" />
      <feComposite
         in2="fbSourceGraphic"
         id="feComposite889"
         in="colormatrix2"
         operator="in"
         k2="1"
         result="fbSourceGraphic" />
      <feColorMatrix
         result="fbSourceGraphicAlpha"
         in="fbSourceGraphic"
         values="0 0 0 -1 0 0 0 0 -1 0 0 0 0 -1 0 0 0 0 1 0"
         id="feColorMatrix891" />
      <feComposite
         in2="fbSourceGraphic"
         id="feComposite893"
         operator="arithmetic"
         k1="0"
         k2="1"
         result="composite1"
         in="fbSourceGraphic" />
      <feColorMatrix
         id="feColorMatrix895"
         in="composite1"
         values="1"
         type="saturate"
         result="colormatrix1" />
      <feFlood
         id="feFlood897"
         flood-opacity="1"
         flood-color="rgb(46,119,184)"
         result="flood1" />
      <feBlend
         in2="colormatrix1"
         id="feBlend899"
         in="flood1"
         mode="multiply"
         result="blend1" />
      <feBlend
         in2="blend1"
         id="feBlend901"
         mode="screen"
         result="blend2" />
      <feColorMatrix
         id="feColorMatrix903"
         in="blend2"
         values="1"
         type="saturate"
         result="colormatrix2" />
      <feComposite
         in2="fbSourceGraphic"
         id="feComposite905"
         in="colormatrix2"
         operator="in"
         k2="1"
         result="composite2" />
    </filter>
  </defs>
  <metadata
     id="metadata5">
    <rdf:RDF>
      <cc:Work
         rdf:about="">
        <dc:format>image/svg+xml</dc:format>
        <dc:type
           rdf:resource="http://purl.org/dc/dcmitype/StillImage" />
        <dc:title></dc:title>
      </cc:Work>
    </rdf:RDF>
  </metadata>
  <g
     id="layer1">
    <g
       id="g857"
       style="fill:#0000ff;filter:url(#filter873)">
      <path
         style="fill:#0000ff;stroke-width:0.264583;fill-opacity:1"
         id="path833"
         d="m 9.7239599,61.423322 c 2.4187121,1.596895 4.2131161,3.909351 5.5989751,6.420175 1.191077,2.351662 1.826709,4.926034 2.609551,7.429323 1.051362,2.683989 2.205449,5.323604 3.333333,7.975361 1.174995,2.510521 2.267819,5.03572 3.219911,7.638339 1.955866,5.007665 2.022411,2.207196 12.96458,1.194927 0.04472,-0.0041 0.993304,-2.221503 1.33673,-2.979092 1.207691,-2.541654 2.296002,-5.133769 3.323421,-7.752501 1.047223,-2.562738 2.526027,-4.907322 4.011859,-7.231882 2.020845,-2.883871 4.110553,-5.717858 6.156354,-8.583383 1.663882,-2.084369 3.321163,-4.168288 5.002146,-6.237517 0.256201,-0.311843 0.5124,-0.623689 0.768599,-0.935535 0,0 -11.767241,-0.804037 -11.767241,-0.804037 v 0 c -0.251132,0.312682 -0.502264,0.625361 -0.753396,0.938043 -1.678641,2.077135 -3.346082,4.163391 -4.927758,6.316342 -2.041721,2.883398 -4.060973,5.782509 -6.147025,8.634209 -1.560991,2.375651 -3.077281,4.794255 -4.091945,7.46402 -1.020591,2.597634 -2.070087,5.18464 -3.361166,7.663109 -0.156322,0.306289 -0.781828,1.572619 -1.025039,1.907809 -0.119072,0.164103 -0.640155,0.408665 -0.437856,0.422201 3.830161,0.256268 7.675168,0.190823 11.511762,0.318733 0.12166,0.004 -0.274299,0.138129 -0.361323,0.05301 -0.220893,-0.216053 -0.284084,-0.548806 -0.426125,-0.823208 -1.052505,-2.577952 -2.014567,-5.187919 -3.270448,-7.681148 -1.136976,-2.602783 -2.271319,-5.201462 -3.234923,-7.875426 -0.889299,-2.546906 -1.596012,-5.17035 -2.719761,-7.6268 -1.375253,-2.655628 -3.21341,-5.009253 -5.437941,-7.01594 0,0 -11.8752741,1.170866 -11.8752741,1.170866 z" />
      <path
         style="fill:#0000ff;stroke-width:0.264583;fill-opacity:1"
         id="path835"
         d="m 28.518429,56.836899 c 2.378284,1.838926 4.219607,4.226261 6.131221,6.517442 2.014114,2.410571 4.035105,4.812958 5.994006,7.268898 1.53447,2.071793 2.848332,4.288787 4.324141,6.401154 1.303179,1.918219 2.47695,3.925795 3.672697,5.913686 1.382451,2.308556 2.648106,4.681543 3.858321,7.083825 0.714211,1.689086 1.365207,3.399014 2.225521,5.020836 5.494986,9.21178 14.285339,0.342429 17.786535,-3.615341 3.320569,-3.626326 5.884342,-7.835825 8.755266,-11.80529 1.642571,-2.565291 3.538257,-4.90833 5.576047,-7.158254 1.555093,-1.472531 3.294411,-2.676374 5.089093,-3.827685 1.543172,-1.016341 2.792278,-2.384197 4.14823,-3.620301 0.818801,-0.78031 1.597269,-1.587471 2.431013,-2.354583 0,0 -11.855804,-0.970378 -11.855804,-0.970378 v 0 c -0.810848,0.777229 -1.567479,1.608063 -2.403835,2.358869 -1.27866,1.245383 -2.620447,2.440315 -4.123992,3.410643 -1.8216,1.208294 -3.510005,2.593239 -5.051544,4.146076 -1.992466,2.278296 -3.71262,4.742151 -5.325716,7.304464 -2.773695,3.991776 -5.320702,8.178366 -8.762909,11.650889 -1.23666,1.261687 -2.529028,2.786605 -4.1992,3.509833 -0.319548,0.138369 -1.368282,0.193702 -1.021101,0.220594 11.673594,0.9042 13.632577,3.389765 10.8468,0.147587 C 65.689926,92.853289 64.97485,91.175289 64.285933,89.475198 63.081897,87.04781 61.706534,84.701771 60.395746,82.32913 59.283007,80.263917 57.994404,78.291319 56.766613,76.294431 55.234215,74.17532 53.821369,71.979641 52.303018,69.850446 50.391057,67.337558 48.335826,64.944489 46.303747,62.528875 44.33362,60.278279 42.575683,57.85677 40.421533,55.767451 c 0,0 -11.903104,1.069448 -11.903104,1.069448 z" />
      <path
         style="fill:#0000ff;stroke-width:0.264583;fill-opacity:1"
         id="path837"
         d="m 37.865174,94.280645 c 0.04582,1.546823 0.228248,3.157389 0.992407,4.530177 0.354936,0.669602 0.633844,1.358078 1.051539,1.998238 0,0 11.941201,-0.67783 11.941201,-0.67783 v 0 c -0.410996,-0.661402 -0.829281,-1.238202 -1.011079,-2.015796 -0.874323,-1.12444 -1.195975,-2.38996 -1.013941,-3.834789 0,0 -11.960127,0 -11.960127,0 z" />
      <path
         style="fill:#0000ff;stroke-width:0.264583;fill-opacity:1"
         id="path839"
         d="m 75.32504,91.662162 c -1.056261,1.889617 -1.973921,3.826988 -2.003115,6.018458 0.149188,0.847323 0.623128,2.38732 1.768263,2.3878 4.164484,0.002 8.326557,-0.200479 12.489834,-0.300716 0,0 -11.815416,-1.562839 -11.815416,-1.562839 v 0 c 3.705077,0.01955 7.411564,-0.0455 11.115228,0.05867 0.222657,0.0063 -0.406832,0.19164 -0.625039,0.236368 -0.37874,0.07763 -0.609171,-0.0011 -0.834249,-0.322403 -0.105178,-0.150225 -0.141759,-0.338267 -0.212641,-0.507402 -0.07536,-1.955839 0.97246,-3.725553 2.029368,-5.306687 0,0 -11.912233,-0.701251 -11.912233,-0.701251 z" />
    </g>
    <path
       style="fill:#2e77b8;stroke-width:2.85714;fill-opacity:1"
       d="m 216.62713,367.35045 c -3.85034,-3.02869 -9.40848,-11.0644 -12.3514,-17.85715 -7.28074,-16.8051 -33.56269,-62.35044 -35.97934,-62.35044 -1.07324,0 -7.44406,12.86357 -14.15737,28.58572 -11.48082,26.88733 -12.81515,28.74427 -22.45824,31.25413 -22.32618,5.81096 -30.97268,6.47281 -33.439154,2.5596 C 93.808837,342.50942 77.153417,303.13503 68.220849,278.57143 63.363516,265.21429 55.689528,249.56449 51.167541,243.79409 l -8.221793,-10.49161 18.545262,-1.98603 c 13.777713,-1.47547 19.742253,-0.99262 23.20143,1.87825 7.948709,6.59684 17.00142,23.13007 23.65556,43.20284 3.51062,10.59007 7.3719,19.86588 8.58061,20.61291 2.11277,1.30576 28.85429,-36.60649 28.72021,-40.71751 -0.036,-1.10397 -7.04368,-10.36437 -15.57261,-20.57865 l -15.50714,-18.57143 7.71547,-1.80482 c 4.2435,-0.99265 13.0922,-1.95693 19.66376,-2.14285 10.32292,-0.29206 12.81908,0.88484 18.34942,8.65149 l 6.40111,8.98953 5.04484,-6.23011 c 4.59164,-5.67045 6.72908,-6.05756 23.79344,-4.30927 10.31173,1.05647 18.7486,2.52916 18.7486,3.27264 0,0.74348 -5.14285,7.49436 -11.42857,15.00196 -6.28571,7.50759 -11.42857,14.88208 -11.42857,16.38774 0,1.50566 6.88166,13.01886 15.29259,25.58488 8.41092,12.56603 18.90097,29.47712 23.31122,37.58021 4.41025,8.10309 8.86583,14.73288 9.90129,14.73288 1.03545,0 11.42185,-13.68861 23.08088,-30.41913 14.82542,-21.27422 26.95168,-35.0097 40.33614,-45.68894 10.52584,-8.3984 19.93954,-16.56694 20.91937,-18.1523 2.12883,-3.44453 32.71834,-3.79913 38.01291,-0.44065 3.78803,2.40283 -4.98231,11.43362 -28.8116,29.66724 -5.62334,4.30285 -21.12568,22.94571 -34.44965,41.42857 -25.85642,35.86774 -40.61386,51.61143 -55.30841,59.00468 -11.97568,6.02532 -18.55401,5.80524 -27.08618,-0.90616 z"
       id="path907"
       transform="scale(0.26458333)" />
    <path
       style="fill:#2e77b8;stroke-width:2.85714;fill-opacity:1"
       d="m 280,366.95502 c 0,-17.28152 3.51812,-19.79265 25.04095,-17.87346 10.58462,0.94382 19.54383,1.9428 19.90936,2.21994 0.36553,0.27714 -0.88063,4.59768 -2.76925,9.60119 -3.31315,8.77754 -4.0395,9.10919 -20.6646,9.43535 -13.91079,0.27291 -15.57923,0.75828 -8.65932,2.5191 8.53077,2.17071 8.52061,2.18267 -2.14285,2.5191 C 280.58972,375.69568 280,375.23217 280,366.95502 Z"
       id="path909"
       transform="scale(0.26458333)" />
    <path
       style="fill:#2e77b8;stroke-width:2.85714;fill-opacity:1"
       d="m 148.67195,373.04498 c -6.61422,-12.35879 -4.20144,-14.47355 16.51316,-14.47355 19.43929,0 19.47854,0.0162 24.23949,10 l 4.76867,10 h -21.28183 c -18.11655,0 -21.72172,-0.82196 -24.23949,-5.52645 z"
       id="path911"
       transform="scale(0.26458333)" />
    <path
       style="fill:#2e77b8;stroke-width:2.85714;fill-opacity:1"
       d="m 225.71429,370.6846 c -7.83196,-2.61371 -14.82585,-10.52993 -22.06103,-24.97031 -10.73884,-21.43321 -33.05425,-58.57143 -35.19407,-58.57143 -1.03378,0 -7.7174,12.6686 -14.85248,28.15244 -12.91561,28.02818 -13.0303,28.1669 -25.98356,31.42857 -23.29312,5.86528 -26.75502,4.82577 -34.286744,-10.2953 -3.71792,-7.46428 -12.902986,-29 -20.411255,-47.85714 -7.508271,-18.85714 -16.702281,-38.3785 -20.431134,-43.3808 -3.728852,-5.00229 -6.779731,-9.82372 -6.779731,-10.71428 0,-0.89056 8.945802,-1.61921 19.87956,-1.61921 h 19.87956 l 7.356148,12.55232 c 4.04588,6.90377 10.537256,20.66952 14.425276,30.59055 3.88802,9.92103 8.16061,19.12972 9.49464,20.46374 2.50183,2.50184 28.98317,-33.86398 28.97141,-39.78533 -0.004,-1.82687 -6.54495,-11.14653 -14.53629,-20.71034 -15.55394,-18.61455 -15.56736,-18.56116 5.40435,-21.50357 11.04637,-1.54984 13.19801,-0.8314 21.06211,7.0327 7.99213,7.99213 9.18583,8.3725 13.63603,4.34512 5.32334,-4.81755 35.76798,-6.32163 38.49945,-1.90202 0.85378,1.38145 -2.915,8.13145 -8.37508,15 -5.46008,6.86854 -9.9399,13.92042 -9.95515,15.67083 -0.0402,4.61014 45.62544,76.81743 48.58117,76.81743 1.36782,0 12.16474,-13.01077 23.99317,-28.91283 27.19584,-36.56189 55.78981,-62.51063 71.68365,-65.05216 6.28571,-1.00513 15.15251,-0.78874 19.70402,0.48086 l 8.27543,2.30837 -20.57397,18.28507 c -11.31568,10.05679 -31.94812,33.14277 -45.84985,51.30217 -13.90173,18.1594 -30.22454,37.77574 -36.2729,43.59187 -11.91567,11.45816 -28.43754,19.53709 -35.28273,17.25268 z"
       id="path913"
       transform="scale(0.26458333)" />
  </g>
</svg>
